# xmcd
#
# Track frame offsets:
#	150
#	24567
#	54555
#	81006
#	113460
#	135483
#	170016
#
# Disc length: 2830 seconds
# Revision: 0
# Processed by: cddbd v1.5.2PL0 Copyright (c) Steve Scherf et al.
# Submitted via: dBpowerAMP V12.0
#
DISCID=4f0b0c07
DTITLE=Dżem - Symfonicznie
DYEAR=2012
DGENRE=Blues/Rock
TTITLE0=Słoneczny Dzionek w Pewli Wielkiej
TTITLE1=A Jednak Czegoś Żal
TTITLE2=Partyzant
TTITLE3=Do Kołyski
TTITLE4=Jak Malowany Ptak
TTITLE5=Wehikuł Czasu (To Byłby Cud)
TTITLE6=Modlitwa III (Pozwól Mi)
EXTD=
EXTT0=
EXTT1=
EXTT2=
EXTT3=
EXTT4=
EXTT5=
EXTT6=
PLAYORDER=
